# xmcd
#
# Track frame offsets: 
#        150
#        27392
#        40532
#        66817
#        89802
#        109492
#        128235
#        145482
#        160172
#        187485
#        212982
#        233415
#        260007
#        285015
#        305285
#
# Disc length: 4499 seconds
#
# Revision: 3
# Processed by: cddbd v1.5.2PL0 Copyright (c) Steve Scherf et al.
# Submitted via: ExactAudioCopyFreeDBPlugin 1.0
#
DISCID=df11910f
DTITLE=CHIE AYADO - Best II
DYEAR=2005
DGENRE=Jazz
TTITLE0=New York State Of Mind
TTITLE1=Sunny
TTITLE2=Feel Like Makin' Love
TTITLE3=どんなときも
TTITLE4=In My Life
TTITLE5=What A Difference A Day Made
TTITLE6=I Can't Stop Loving You
TTITLE7=The End Of The World
TTITLE8=A Whiter Shade Of Pale
TTITLE9=With A Little Help From My Friends
TTITLE10=Imagine
TTITLE11=Take Me Home, Country Roads
TTITLE12=Mr. Bojangles
TTITLE13=Let It Be
TTITLE14=Blowin' In The Wind
EXTD=YEAR: 2005
EXTT0=
EXTT1=
EXTT2=
EXTT3=
EXTT4=
EXTT5=
EXTT6=
EXTT7=
EXTT8=
EXTT9=
EXTT10=
EXTT11=
EXTT12=
EXTT13=
EXTT14=
PLAYORDER=
